<svg width="15" height="15" viewBox="0 0 15 15" fill="none" xmlns="http://www.w3.org/2000/svg">
<path d="M14.5498 8.94604V14.2675H11.4645V9.30268C11.4645 8.05606 11.0191 7.20473 9.90199 7.20473C9.04951 7.20473 8.54309 7.77788 8.31944 8.33285C8.23822 8.53119 8.21728 8.80661 8.21728 9.08478V14.2673H5.1318C5.1318 14.2673 5.17321 5.85848 5.1318 4.98806H8.21751V6.30301C8.2113 6.31337 8.20256 6.32349 8.19703 6.33338H8.21751V6.30301C8.62753 5.67211 9.35875 4.77016 10.9981 4.77016C13.028 4.77016 14.5498 6.09639 14.5498 8.94604ZM1.90411 0.515137C0.848699 0.515137 0.158203 1.20793 0.158203 2.11816C0.158203 3.00907 0.828681 3.72188 1.86362 3.72188H1.88364C2.95976 3.72188 3.62886 3.00907 3.62886 2.11816C3.60838 1.20793 2.95976 0.515137 1.90411 0.515137ZM0.341584 14.2675H3.42592V4.98806H0.341584V14.2675Z" fill="white"/>
</svg>
