<svg width="12" height="13" viewBox="0 0 12 13" fill="none" xmlns="http://www.w3.org/2000/svg">
<path d="M9.36371 6.70635C9.38104 8.60546 11.0003 9.23743 11.0182 9.24548C11.0045 9.29002 10.7595 10.1461 10.1651 11.0303C9.65129 11.7948 9.11806 12.5564 8.27803 12.5722C7.45262 12.5877 7.1872 12.074 6.24352 12.074C5.30012 12.074 5.00523 12.5565 4.22388 12.5877C3.41304 12.619 2.79557 11.7611 2.27752 10.9994C1.21892 9.44137 0.409924 6.5968 1.4962 4.67667C2.03584 3.72313 3.00021 3.1193 4.04695 3.10382C4.84318 3.08836 5.5947 3.64914 6.08147 3.64914C6.56793 3.64914 7.48119 2.97475 8.44129 3.07379C8.84323 3.09082 9.97148 3.23908 10.6959 4.3186C10.6375 4.35543 9.34971 5.11865 9.36371 6.70635ZM7.81244 2.04303C8.24292 1.51257 8.53266 0.774121 8.45362 0.0393677C7.83311 0.0647558 7.08278 0.460299 6.6377 0.990469C6.23883 1.45996 5.8895 2.21141 5.98376 2.93162C6.67539 2.98609 7.38194 2.57383 7.81244 2.04303Z" fill="#282A2E"/>
</svg>
