<svg width="16" height="14" viewBox="0 0 16 14" fill="none" xmlns="http://www.w3.org/2000/svg">
<path d="M14.0086 4.06881L14.0183 4.48268C14.0183 8.70888 10.8032 13.5778 4.92318 13.5778C3.11845 13.5778 1.43865 13.0487 0.0234375 12.1415C0.273401 12.1707 0.528169 12.1869 0.786247 12.1869C2.28426 12.1869 3.66216 11.6757 4.75602 10.8187C3.35704 10.7928 2.17711 9.86767 1.76976 8.59852C1.96612 8.63584 2.16414 8.65373 2.37187 8.65373C2.66401 8.65373 2.94638 8.61641 3.21418 8.54337C1.75188 8.24798 0.649893 6.95775 0.649893 5.40944V5.36887C1.08159 5.60906 1.57335 5.75187 2.09757 5.76976C1.24063 5.19685 0.67584 4.21819 0.67584 3.10969C0.67584 2.52381 0.833282 1.97525 1.10754 1.50298C2.68345 3.43755 5.04 4.70995 7.6968 4.84305C7.6416 4.60931 7.61405 4.36426 7.61405 4.11435C7.61405 2.3502 9.04549 0.918701 10.8113 0.918701C11.7299 0.918701 12.5609 1.30657 13.1451 1.92816C13.8722 1.7837 14.5571 1.51756 15.1755 1.15238C14.9369 1.89896 14.4305 2.52542 13.77 2.9214C14.4143 2.8451 15.0326 2.67143 15.6056 2.41827C15.1771 3.05769 14.6334 3.62089 14.0086 4.06881Z" fill="white"/>
</svg>
